<mxfile host="65bd71144e">
    <diagram id="oq4d9uawDV2UhG_QIp9t" name="Page-1">
        <mxGraphModel dx="1918" dy="1203" grid="1" gridSize="10" guides="1" tooltips="1" connect="1" arrows="1" fold="1" page="1" pageScale="1" pageWidth="850" pageHeight="1100" math="0" shadow="0">
            <root>
                <mxCell id="0"/>
                <mxCell id="1" parent="0"/>
                <mxCell id="2" value="AppController" style="swimlane;fontStyle=1;align=center;verticalAlign=top;childLayout=stackLayout;horizontal=1;startSize=22;horizontalStack=0;resizeParent=1;resizeParentMax=0;resizeLast=0;collapsible=1;marginBottom=0;" parent="1" vertex="1">
                    <mxGeometry x="330" y="398" width="305" height="76" as="geometry"/>
                </mxCell>
                <mxCell id="4" value="" style="line;strokeWidth=1;fillColor=none;align=left;verticalAlign=middle;spacingTop=-1;spacingLeft=3;spacingRight=3;rotatable=0;labelPosition=right;points=[];portConstraint=eastwest;strokeColor=inherit;" parent="2" vertex="1">
                    <mxGeometry y="22" width="305" height="54" as="geometry"/>
                </mxCell>
                <mxCell id="6" value="Report" style="swimlane;fontStyle=1;align=center;verticalAlign=top;childLayout=stackLayout;horizontal=1;startSize=26;horizontalStack=0;resizeParent=1;resizeParentMax=0;resizeLast=0;collapsible=1;marginBottom=0;" parent="1" vertex="1">
                    <mxGeometry x="815" y="200" width="200" height="90" as="geometry"/>
                </mxCell>
                <mxCell id="74" value="&#10;" style="text;strokeColor=none;fillColor=none;align=left;verticalAlign=top;spacingLeft=4;spacingRight=4;overflow=hidden;rotatable=0;points=[[0,0.5],[1,0.5]];portConstraint=eastwest;" vertex="1" parent="6">
                    <mxGeometry y="26" width="200" height="14" as="geometry"/>
                </mxCell>
                <mxCell id="8" value="" style="line;strokeWidth=1;fillColor=none;align=left;verticalAlign=middle;spacingTop=-1;spacingLeft=3;spacingRight=3;rotatable=0;labelPosition=right;points=[];portConstraint=eastwest;strokeColor=inherit;" parent="6" vertex="1">
                    <mxGeometry y="40" width="200" height="10" as="geometry"/>
                </mxCell>
                <mxCell id="75" value="+ remainingWorkhours : int&#10;+ incompleteActivities : int" style="text;strokeColor=none;fillColor=none;align=left;verticalAlign=top;spacingLeft=4;spacingRight=4;overflow=hidden;rotatable=0;points=[[0,0.5],[1,0.5]];portConstraint=eastwest;" vertex="1" parent="6">
                    <mxGeometry y="50" width="200" height="40" as="geometry"/>
                </mxCell>
                <mxCell id="14" value="Projekt" style="swimlane;fontStyle=1;align=center;verticalAlign=top;childLayout=stackLayout;horizontal=1;startSize=26;horizontalStack=0;resizeParent=1;resizeParentMax=0;resizeLast=0;collapsible=1;marginBottom=0;" parent="1" vertex="1">
                    <mxGeometry x="800" y="380" width="230" height="98" as="geometry"/>
                </mxCell>
                <mxCell id="15" value="projectNumber : int&#10;customer : String&#10;" style="text;strokeColor=none;fillColor=none;align=left;verticalAlign=top;spacingLeft=4;spacingRight=4;overflow=hidden;rotatable=0;points=[[0,0.5],[1,0.5]];portConstraint=eastwest;" parent="14" vertex="1">
                    <mxGeometry y="26" width="230" height="64" as="geometry"/>
                </mxCell>
                <mxCell id="16" value="" style="line;strokeWidth=1;fillColor=none;align=left;verticalAlign=middle;spacingTop=-1;spacingLeft=3;spacingRight=3;rotatable=0;labelPosition=right;points=[];portConstraint=eastwest;strokeColor=inherit;" parent="14" vertex="1">
                    <mxGeometry y="90" width="230" height="8" as="geometry"/>
                </mxCell>
                <mxCell id="18" value="&lt;&lt;abstract&gt;&gt;&#10;Activity" style="swimlane;fontStyle=1;align=center;verticalAlign=top;childLayout=stackLayout;horizontal=1;startSize=40;horizontalStack=0;resizeParent=1;resizeParentMax=0;resizeLast=0;collapsible=1;marginBottom=0;" parent="1" vertex="1">
                    <mxGeometry x="940" y="762" width="160" height="108" as="geometry"/>
                </mxCell>
                <mxCell id="19" value="title : String&#10;startWeek : int&#10;endWeek : int" style="text;strokeColor=none;fillColor=none;align=left;verticalAlign=top;spacingLeft=4;spacingRight=4;overflow=hidden;rotatable=0;points=[[0,0.5],[1,0.5]];portConstraint=eastwest;" parent="18" vertex="1">
                    <mxGeometry y="40" width="160" height="60" as="geometry"/>
                </mxCell>
                <mxCell id="20" value="" style="line;strokeWidth=1;fillColor=none;align=left;verticalAlign=middle;spacingTop=-1;spacingLeft=3;spacingRight=3;rotatable=0;labelPosition=right;points=[];portConstraint=eastwest;strokeColor=inherit;" parent="18" vertex="1">
                    <mxGeometry y="100" width="160" height="8" as="geometry"/>
                </mxCell>
                <mxCell id="22" value="RegularActivity" style="swimlane;fontStyle=1;align=center;verticalAlign=top;childLayout=stackLayout;horizontal=1;startSize=26;horizontalStack=0;resizeParent=1;resizeParentMax=0;resizeLast=0;collapsible=1;marginBottom=0;" parent="1" vertex="1">
                    <mxGeometry x="517" y="770" width="160" height="34" as="geometry"/>
                </mxCell>
                <mxCell id="24" value="" style="line;strokeWidth=1;fillColor=none;align=left;verticalAlign=middle;spacingTop=-1;spacingLeft=3;spacingRight=3;rotatable=0;labelPosition=right;points=[];portConstraint=eastwest;strokeColor=inherit;" parent="22" vertex="1">
                    <mxGeometry y="26" width="160" height="8" as="geometry"/>
                </mxCell>
                <mxCell id="26" value="ProjectActivity" style="swimlane;fontStyle=1;align=center;verticalAlign=top;childLayout=stackLayout;horizontal=1;startSize=26;horizontalStack=0;resizeParent=1;resizeParentMax=0;resizeLast=0;collapsible=1;marginBottom=0;" parent="1" vertex="1">
                    <mxGeometry x="940" y="580" width="160" height="58" as="geometry"/>
                </mxCell>
                <mxCell id="27" value="timebudget : int" style="text;strokeColor=none;fillColor=none;align=left;verticalAlign=top;spacingLeft=4;spacingRight=4;overflow=hidden;rotatable=0;points=[[0,0.5],[1,0.5]];portConstraint=eastwest;" parent="26" vertex="1">
                    <mxGeometry y="26" width="160" height="24" as="geometry"/>
                </mxCell>
                <mxCell id="28" value="" style="line;strokeWidth=1;fillColor=none;align=left;verticalAlign=middle;spacingTop=-1;spacingLeft=3;spacingRight=3;rotatable=0;labelPosition=right;points=[];portConstraint=eastwest;strokeColor=inherit;" parent="26" vertex="1">
                    <mxGeometry y="50" width="160" height="8" as="geometry"/>
                </mxCell>
                <mxCell id="39" value="" style="endArrow=block;endSize=12;endFill=0;html=1;exitX=1;exitY=0.25;exitDx=0;exitDy=0;entryX=-0.028;entryY=0.169;entryDx=0;entryDy=0;entryPerimeter=0;" parent="1" source="22" target="18" edge="1">
                    <mxGeometry width="160" relative="1" as="geometry">
                        <mxPoint x="687" y="750" as="sourcePoint"/>
                        <mxPoint x="830" y="780" as="targetPoint"/>
                    </mxGeometry>
                </mxCell>
                <mxCell id="40" value="" style="endArrow=block;endSize=12;endFill=0;html=1;entryX=0.5;entryY=0;entryDx=0;entryDy=0;exitX=0.5;exitY=1;exitDx=0;exitDy=0;" parent="1" source="26" target="18" edge="1">
                    <mxGeometry width="160" relative="1" as="geometry">
                        <mxPoint x="875" y="630" as="sourcePoint"/>
                        <mxPoint x="1035" y="630" as="targetPoint"/>
                    </mxGeometry>
                </mxCell>
                <mxCell id="41" value="activities" style="endArrow=none;html=1;endSize=12;startArrow=diamondThin;startSize=12;startFill=1;edgeStyle=orthogonalEdgeStyle;align=left;verticalAlign=bottom;entryX=0.5;entryY=0;entryDx=0;entryDy=0;endFill=0;" parent="1" target="26" edge="1">
                    <mxGeometry x="0.7826" y="-55" relative="1" as="geometry">
                        <mxPoint x="1020" y="480" as="sourcePoint"/>
                        <mxPoint x="930" y="560" as="targetPoint"/>
                        <mxPoint as="offset"/>
                        <Array as="points">
                            <mxPoint x="1020" y="530"/>
                            <mxPoint x="1020" y="530"/>
                        </Array>
                    </mxGeometry>
                </mxCell>
                <mxCell id="42" value="Employee" style="swimlane;fontStyle=1;align=center;verticalAlign=top;childLayout=stackLayout;horizontal=1;startSize=26;horizontalStack=0;resizeParent=1;resizeParentMax=0;resizeLast=0;collapsible=1;marginBottom=0;" parent="1" vertex="1">
                    <mxGeometry x="357.5" y="570" width="250" height="68" as="geometry">
                        <mxRectangle x="210" y="300" width="100" height="30" as="alternateBounds"/>
                    </mxGeometry>
                </mxCell>
                <mxCell id="43" value="initials : String&#10;name : String&#10;" style="text;strokeColor=none;fillColor=none;align=left;verticalAlign=top;spacingLeft=4;spacingRight=4;overflow=hidden;rotatable=0;points=[[0,0.5],[1,0.5]];portConstraint=eastwest;" parent="42" vertex="1">
                    <mxGeometry y="26" width="250" height="34" as="geometry"/>
                </mxCell>
                <mxCell id="44" value="" style="line;strokeWidth=1;fillColor=none;align=left;verticalAlign=middle;spacingTop=-1;spacingLeft=3;spacingRight=3;rotatable=0;labelPosition=right;points=[];portConstraint=eastwest;strokeColor=inherit;" parent="42" vertex="1">
                    <mxGeometry y="60" width="250" height="8" as="geometry"/>
                </mxCell>
                <mxCell id="47" value="0..*" style="endArrow=none;html=1;endSize=12;startArrow=diamondThin;startSize=12;startFill=1;edgeStyle=orthogonalEdgeStyle;align=left;verticalAlign=bottom;exitX=0.5;exitY=1;exitDx=0;exitDy=0;entryX=0;entryY=0.25;entryDx=0;entryDy=0;endFill=0;" parent="1" source="42" target="22" edge="1">
                    <mxGeometry x="0.3943" y="8" relative="1" as="geometry">
                        <mxPoint x="437" y="730" as="sourcePoint"/>
                        <mxPoint x="597" y="730" as="targetPoint"/>
                        <mxPoint as="offset"/>
                    </mxGeometry>
                </mxCell>
                <mxCell id="59" value="regularActivities" style="edgeLabel;html=1;align=center;verticalAlign=middle;resizable=0;points=[];" vertex="1" connectable="0" parent="47">
                    <mxGeometry x="-0.3421" y="1" relative="1" as="geometry">
                        <mxPoint x="-53" y="56" as="offset"/>
                    </mxGeometry>
                </mxCell>
                <mxCell id="48" value="" style="endArrow=none;endFill=0;html=1;edgeStyle=orthogonalEdgeStyle;align=left;verticalAlign=top;entryX=0.5;entryY=0;entryDx=0;entryDy=0;exitX=0.5;exitY=1;exitDx=0;exitDy=0;startArrow=diamondThin;startFill=1;startSize=12;endSize=12;" parent="1" source="2" target="42" edge="1">
                    <mxGeometry x="-1" relative="1" as="geometry">
                        <mxPoint x="537" y="530" as="sourcePoint"/>
                        <mxPoint x="597" y="560" as="targetPoint"/>
                    </mxGeometry>
                </mxCell>
                <mxCell id="49" value="0..*" style="edgeLabel;resizable=0;html=1;align=left;verticalAlign=bottom;" parent="48" connectable="0" vertex="1">
                    <mxGeometry x="-1" relative="1" as="geometry">
                        <mxPoint x="8" y="82" as="offset"/>
                    </mxGeometry>
                </mxCell>
                <mxCell id="58" value="Employees" style="edgeLabel;html=1;align=center;verticalAlign=middle;resizable=0;points=[];" vertex="1" connectable="0" parent="48">
                    <mxGeometry x="-0.2477" y="-1" relative="1" as="geometry">
                        <mxPoint x="-41" y="38" as="offset"/>
                    </mxGeometry>
                </mxCell>
                <mxCell id="53" value="" style="endArrow=none;endFill=0;html=1;edgeStyle=orthogonalEdgeStyle;align=left;verticalAlign=top;exitX=1;exitY=0.5;exitDx=0;exitDy=0;entryX=0;entryY=0.5;entryDx=0;entryDy=0;startArrow=diamondThin;startFill=1;endSize=12;startSize=12;" parent="1" edge="1">
                    <mxGeometry x="-1" relative="1" as="geometry">
                        <mxPoint x="635" y="438" as="sourcePoint"/>
                        <mxPoint x="800" y="438" as="targetPoint"/>
                    </mxGeometry>
                </mxCell>
                <mxCell id="54" value="0..*" style="edgeLabel;resizable=0;html=1;align=left;verticalAlign=bottom;" parent="53" connectable="0" vertex="1">
                    <mxGeometry x="-1" relative="1" as="geometry">
                        <mxPoint x="135" y="-8" as="offset"/>
                    </mxGeometry>
                </mxCell>
                <mxCell id="56" value="projects" style="edgeLabel;html=1;align=center;verticalAlign=middle;resizable=0;points=[];" vertex="1" connectable="0" parent="53">
                    <mxGeometry x="0.1712" y="-1" relative="1" as="geometry">
                        <mxPoint x="29" y="11" as="offset"/>
                    </mxGeometry>
                </mxCell>
                <mxCell id="57" value="0..*" style="edgeLabel;resizable=0;html=1;align=left;verticalAlign=bottom;" connectable="0" vertex="1" parent="1">
                    <mxGeometry x="1035" y="570" as="geometry"/>
                </mxCell>
                <mxCell id="60" value="" style="endArrow=diamondThin;html=1;startSize=12;endSize=12;exitX=1;exitY=1;exitDx=0;exitDy=0;startArrow=none;startFill=0;endFill=0;" edge="1" parent="1" source="42">
                    <mxGeometry width="50" height="50" relative="1" as="geometry">
                        <mxPoint x="420" y="580" as="sourcePoint"/>
                        <mxPoint x="860" y="480" as="targetPoint"/>
                        <Array as="points">
                            <mxPoint x="860" y="640"/>
                        </Array>
                    </mxGeometry>
                </mxCell>
                <mxCell id="61" value="employees" style="edgeLabel;html=1;align=center;verticalAlign=middle;resizable=0;points=[];" vertex="1" connectable="0" parent="60">
                    <mxGeometry x="-0.545" y="1" relative="1" as="geometry">
                        <mxPoint x="-51" y="12" as="offset"/>
                    </mxGeometry>
                </mxCell>
                <mxCell id="62" value="0..*" style="edgeLabel;html=1;align=center;verticalAlign=middle;resizable=0;points=[];" vertex="1" connectable="0" parent="60">
                    <mxGeometry x="-0.3924" relative="1" as="geometry">
                        <mxPoint x="-102" y="-13" as="offset"/>
                    </mxGeometry>
                </mxCell>
                <mxCell id="63" value="" style="endArrow=diamondThin;html=1;startSize=12;endSize=12;startArrow=none;startFill=0;endFill=0;" edge="1" parent="1">
                    <mxGeometry width="50" height="50" relative="1" as="geometry">
                        <mxPoint x="610" y="570" as="sourcePoint"/>
                        <mxPoint x="823" y="480" as="targetPoint"/>
                        <Array as="points">
                            <mxPoint x="823" y="570"/>
                        </Array>
                    </mxGeometry>
                </mxCell>
                <mxCell id="64" value="projectLeader" style="edgeLabel;html=1;align=center;verticalAlign=middle;resizable=0;points=[];" vertex="1" connectable="0" parent="63">
                    <mxGeometry x="-0.545" y="1" relative="1" as="geometry">
                        <mxPoint x="-29" y="11" as="offset"/>
                    </mxGeometry>
                </mxCell>
                <mxCell id="65" value="1" style="edgeLabel;html=1;align=center;verticalAlign=middle;resizable=0;points=[];" vertex="1" connectable="0" parent="63">
                    <mxGeometry x="-0.3924" relative="1" as="geometry">
                        <mxPoint x="-77" y="-13" as="offset"/>
                    </mxGeometry>
                </mxCell>
                <mxCell id="66" value="" style="endArrow=classic;html=1;startSize=12;endSize=12;exitX=0.5;exitY=0;exitDx=0;exitDy=0;entryX=0;entryY=0.5;entryDx=0;entryDy=0;orthogonal=1;ignoreEdge=0;endFill=1;" edge="1" parent="1" source="2" target="6">
                    <mxGeometry width="50" height="50" relative="1" as="geometry">
                        <mxPoint x="530" y="320" as="sourcePoint"/>
                        <mxPoint x="580" y="270" as="targetPoint"/>
                        <Array as="points">
                            <mxPoint x="480" y="245"/>
                        </Array>
                    </mxGeometry>
                </mxCell>
                <mxCell id="70" value="generateReport(Project project)" style="edgeLabel;html=1;align=center;verticalAlign=middle;resizable=0;points=[];" vertex="1" connectable="0" parent="66">
                    <mxGeometry x="0.6308" y="2" relative="1" as="geometry">
                        <mxPoint x="-10" y="-15" as="offset"/>
                    </mxGeometry>
                </mxCell>
                <mxCell id="67" value="" style="endArrow=none;html=1;startSize=12;endSize=12;entryX=0.5;entryY=1;entryDx=0;entryDy=0;exitX=0.5;exitY=0;exitDx=0;exitDy=0;startArrow=diamondThin;startFill=1;" edge="1" parent="1" source="14" target="6">
                    <mxGeometry width="50" height="50" relative="1" as="geometry">
                        <mxPoint x="530" y="320" as="sourcePoint"/>
                        <mxPoint x="580" y="270" as="targetPoint"/>
                    </mxGeometry>
                </mxCell>
                <mxCell id="68" value="project" style="edgeLabel;html=1;align=center;verticalAlign=middle;resizable=0;points=[];" vertex="1" connectable="0" parent="67">
                    <mxGeometry x="-0.2998" y="-1" relative="1" as="geometry">
                        <mxPoint x="-26" y="31" as="offset"/>
                    </mxGeometry>
                </mxCell>
                <mxCell id="69" value="1" style="edgeLabel;html=1;align=center;verticalAlign=middle;resizable=0;points=[];" vertex="1" connectable="0" parent="67">
                    <mxGeometry x="-0.195" y="2" relative="1" as="geometry">
                        <mxPoint x="17" y="39" as="offset"/>
                    </mxGeometry>
                </mxCell>
            </root>
        </mxGraphModel>
    </diagram>
</mxfile>